<svg width="129" height="137" viewBox="0 0 129 137" fill="none" xmlns="http://www.w3.org/2000/svg">
<g filter="url(#filter0_d_502_547)">
<path d="M47.7588 32.0878C47.0442 30.0021 46.6535 27.7508 46.6535 25.4054C46.6535 14.6123 54.8887 5.8627 65.0475 5.8627C75.2063 5.8627 83.4415 14.6123 83.4415 25.4054C83.4415 28.567 82.7304 31.564 81.4697 34.214C83.2838 34.3473 85.0466 35.2157 86.3318 36.7762C93.3145 45.2549 99.4252 57.3439 99.4252 71.3563C99.4252 81.3741 96.179 88.7974 91.7926 94.1461L100.124 95.6985C103.525 96.3324 106.007 99.4712 106.007 103.14V117.307C106.007 119.311 105.257 121.233 103.924 122.65C102.59 124.067 100.781 124.863 98.8952 124.863L31.1998 124.863C27.2722 124.863 24.0883 121.48 24.0883 117.307V103.14C24.0883 99.4754 26.5641 96.3389 29.961 95.7005L37.4761 94.2879C33.0299 88.9292 29.7296 81.4643 29.7296 71.3563C29.7296 60.4239 33.7172 50.9031 38.3941 43.6066C41.3338 39.0204 44.6619 35.1268 47.7588 32.0878Z" fill="#F4F7FA"/>
<path d="M68.5348 70.3574H61.4234C61.4234 56.4838 65.384 42.6335 74.1459 32.4954C75.519 30.5098 76.3301 28.0583 76.3301 25.4055C76.3301 18.7851 71.2787 13.4183 65.0475 13.4183C58.8163 13.4183 53.7649 18.7851 53.7649 25.4055C53.7649 28.6717 54.9946 31.6329 56.9887 33.795C49.9409 39.1331 36.8411 53.4417 36.8411 71.3563C36.8411 89.4353 50.1824 96.7546 57.1812 98.2571L31.1998 103.14V117.307L98.8952 117.307V103.14L72.2977 98.1844C79.3757 96.5291 92.3137 89.16 92.3137 71.3563C92.3137 59.6989 87.2024 49.3072 80.9798 41.7516C74.1459 47.4183 68.5348 60.6405 68.5348 70.3574Z" fill="#F4F7FA"/>
</g>
<defs>
<filter id="filter0_d_502_547" x="-3.02383" y="0.196045" width="136.006" height="144" filterUnits="userSpaceOnUse" color-interpolation-filters="sRGB">
<feFlood flood-opacity="0" result="BackgroundImageFix"/>
<feColorMatrix in="SourceAlpha" type="matrix" values="0 0 0 0 0 0 0 0 0 0 0 0 0 0 0 0 0 0 127 0" result="hardAlpha"/>
<feOffset dy="4"/>
<feGaussianBlur stdDeviation="2"/>
<feComposite in2="hardAlpha" operator="out"/>
<feColorMatrix type="matrix" values="0 0 0 0 0 0 0 0 0 0 0 0 0 0 0 0 0 0 0.25 0"/>
<feBlend mode="normal" in2="BackgroundImageFix" result="effect1_dropShadow_502_547"/>
<feBlend mode="normal" in="SourceGraphic" in2="effect1_dropShadow_502_547" result="shape"/>
</filter>
</defs>
</svg>
