<svg width="129" height="137" viewBox="0 0 129 137" fill="none" xmlns="http://www.w3.org/2000/svg">
<g clip-path="url(#clip0_502_531)" filter="url(#filter0_d_502_531)">
<path fill-rule="evenodd" clip-rule="evenodd" d="M54.3154 7.5156C54.4354 3.43666 57.5823 0.196045 61.4234 0.196045H72.0906C75.9316 0.196045 79.0785 3.43666 79.1985 7.5156L79.261 9.64049H82.7577C86.6853 9.64049 89.8692 13.0232 89.8692 17.196V21.7786C97.6209 19.9149 105.988 21.1598 113.089 27.4473C127.842 40.5092 126.485 67.8902 108.976 82.8668C104.751 86.481 101.431 89.4773 99.1457 92.5646C98.6242 93.2689 98.1775 93.9504 97.8014 94.6175L105.009 95.6531C108.536 96.1599 111.167 99.359 111.167 103.14V117.307C111.167 121.48 107.983 124.863 104.056 124.863H29.4584C25.5309 124.863 22.347 121.48 22.347 117.307V103.14C22.347 99.359 24.9782 96.1599 28.5053 95.6531L35.7125 94.6175C35.3365 93.9504 34.8897 93.2689 34.3682 92.5645C32.0825 89.4773 28.7631 86.481 24.5378 82.8668C7.0291 67.8902 5.67164 40.5092 20.4246 27.4473C27.5261 21.1598 35.893 19.9148 43.6448 21.7786V17.196C43.6448 13.0232 46.8287 9.64049 50.7562 9.64049H54.2529L54.3154 7.5156Z" fill="#F4F7FA"/>
<path fill-rule="evenodd" clip-rule="evenodd" d="M61.4234 7.75159H72.0905L72.3683 17.196H82.7577V28.5294H72.7017L73.1902 41.3605C73.3851 41.1166 73.5859 40.8774 73.7927 40.6437C83.5055 29.6761 97.9062 23.8397 108.537 33.2516C119.204 42.696 119.204 64.4183 104.516 76.9815C96.1965 84.0983 88.7443 90.9589 89.1115 100.993L104.056 103.14V117.307H29.4584V103.14L44.4024 100.993C44.7696 90.9589 37.3174 84.0982 28.9975 76.9815C14.3101 64.4183 14.3101 42.696 24.9773 33.2516C35.6077 23.8397 50.0084 29.6761 59.7212 40.6437C59.9281 40.8774 60.1288 41.1166 60.3237 41.3605L60.8122 28.5294H50.7562V17.196H61.1456L61.4234 7.75159ZM51.375 51.1453C57.8938 62.4899 58.7566 75.7516 58.7566 81.5188C55.4891 81.525 43.1716 75.7676 36.65 66.3159C31.955 59.5113 30.7308 49.4157 34.7555 45.4963C38.7802 41.5769 47.3007 44.0549 51.375 51.1453ZM82.139 51.1453C75.6201 62.4899 74.7573 75.7516 74.7573 81.5188C78.0248 81.525 90.3424 75.7676 96.8639 66.3159C101.559 59.5113 102.783 49.4157 98.7584 45.4963C94.7337 41.5769 86.2132 44.0549 82.139 51.1453Z" fill="#34364C"/>
</g>
<defs>
<filter id="filter0_d_502_531" x="-3.02383" y="0.196045" width="136.006" height="144" filterUnits="userSpaceOnUse" color-interpolation-filters="sRGB">
<feFlood flood-opacity="0" result="BackgroundImageFix"/>
<feColorMatrix in="SourceAlpha" type="matrix" values="0 0 0 0 0 0 0 0 0 0 0 0 0 0 0 0 0 0 127 0" result="hardAlpha"/>
<feOffset dy="4"/>
<feGaussianBlur stdDeviation="2"/>
<feComposite in2="hardAlpha" operator="out"/>
<feColorMatrix type="matrix" values="0 0 0 0 0 0 0 0 0 0 0 0 0 0 0 0 0 0 0.25 0"/>
<feBlend mode="normal" in2="BackgroundImageFix" result="effect1_dropShadow_502_531"/>
<feBlend mode="normal" in="SourceGraphic" in2="effect1_dropShadow_502_531" result="shape"/>
</filter>
<clipPath id="clip0_502_531">
<rect width="128.006" height="136" fill="white" transform="translate(0.976166 0.196045)"/>
</clipPath>
</defs>
</svg>
