<svg width="129" height="137" viewBox="0 0 129 137" fill="none" xmlns="http://www.w3.org/2000/svg">
<g filter="url(#filter0_d_502_543)">
<path d="M53.7606 1.15366C56.1014 0.873998 58.4207 1.84403 59.954 3.74402L74.463 21.7233C91.125 26.098 100.779 39.428 106.118 56.0687C111.62 73.2157 112.981 94.9842 112.981 117.307C112.981 121.48 109.797 124.863 105.87 124.863H39.5645C35.7891 124.863 32.6717 121.728 32.4638 117.723C32.2783 114.149 33.0523 107.948 35.4108 101.613L35.4541 101.497C28.7565 105.317 21.3235 104.402 15.8055 100.228C9.09968 95.1552 5.37106 85.2252 9.63106 75.4188C12.703 68.3472 16.0139 64.6026 18.5185 61.7705C20.8581 59.1251 21.8331 57.9615 22.5228 55.0302C26.7048 37.2577 35.3083 27.0196 44.5477 22.3472C44.4141 20.3225 44.5228 18.3719 44.7565 16.6008C45.3383 12.1925 46.7868 8.11877 48.2633 5.14069C49.3611 2.92638 51.4197 1.43332 53.7606 1.15366Z" fill="#F4F7FA"/>
<path fill-rule="evenodd" clip-rule="evenodd" d="M70.6161 28.5643L54.5552 8.66187C52.2303 13.3512 49.9764 21.6276 53.2169 27.6022C51.6441 27.751 50.141 28.0337 48.9784 28.5294C41.5609 31.6919 33.4221 39.8627 29.4219 56.8627C28.2636 61.7852 26.1789 64.1425 23.7011 66.9442C21.3639 69.587 18.6769 72.6252 16.088 78.5849C10.7544 90.8627 25.1485 103.14 35.6444 91.9891C41.5454 85.7196 46.7034 83.1315 51.0339 80.9585C57.2668 77.831 61.7855 75.5636 64.3379 64.4183C65.5523 69.617 65.0666 81.8861 53.4085 89.3724C41.7504 96.8586 39.3216 112.628 39.5645 117.307H105.87C105.87 72.8865 100.334 34.5073 70.6161 28.5643Z" fill="#F4F7FA"/>
<ellipse cx="50.7562" cy="51.1961" rx="5.33358" ry="5.66667" fill="#F4F7FA"/>
</g>
<defs>
<filter id="filter0_d_502_543" x="-3.02383" y="0.196045" width="136.006" height="144" filterUnits="userSpaceOnUse" color-interpolation-filters="sRGB">
<feFlood flood-opacity="0" result="BackgroundImageFix"/>
<feColorMatrix in="SourceAlpha" type="matrix" values="0 0 0 0 0 0 0 0 0 0 0 0 0 0 0 0 0 0 127 0" result="hardAlpha"/>
<feOffset dy="4"/>
<feGaussianBlur stdDeviation="2"/>
<feComposite in2="hardAlpha" operator="out"/>
<feColorMatrix type="matrix" values="0 0 0 0 0 0 0 0 0 0 0 0 0 0 0 0 0 0 0.25 0"/>
<feBlend mode="normal" in2="BackgroundImageFix" result="effect1_dropShadow_502_543"/>
<feBlend mode="normal" in="SourceGraphic" in2="effect1_dropShadow_502_543" result="shape"/>
</filter>
</defs>
</svg>
