<svg width="129" height="137" viewBox="0 0 129 137" fill="none" xmlns="http://www.w3.org/2000/svg">
<g filter="url(#filter0_d_502_522)">
<path d="M42.058 78.0928C41.2096 79.3234 40.1973 80.6049 39.0171 81.9232C34.8524 86.5755 29.7447 90.4033 26.4482 92.4046L25.8936 92.7413C23.6779 94.0865 22.3105 96.59 22.3105 99.3014V117.52C22.3105 121.692 25.4944 125.075 29.4219 125.075H98.7585C102.686 125.075 105.87 121.692 105.87 117.52V99.3014C105.87 96.59 104.502 94.0866 102.287 92.7413L101.732 92.4047C98.4357 90.4033 93.328 86.5755 89.1632 81.9232C87.9831 80.6049 86.9708 79.3234 86.1223 78.0928C89.2434 77.2941 91.5624 74.3083 91.5624 70.7471V58.4481C91.5624 55.9932 90.4397 53.6912 88.552 52.2755L85.5316 50.0103C87.2743 46.4127 88.2606 42.3301 88.2606 38.0064C88.2606 23.5009 77.1928 11.7419 63.5399 11.7419C49.887 11.7419 38.8192 23.5009 38.8192 38.0064C38.8192 42.5733 39.9191 46.87 41.8483 50.6106L39.6284 52.2755C37.7407 53.6912 36.618 55.9932 36.618 58.4481V70.7471C36.618 74.3083 38.937 77.2941 42.058 78.0928Z" fill="#F4F7FA"/>
<path d="M81.1492 38.0064C81.1492 43.4325 78.975 48.3192 75.5017 51.7365L84.4509 58.4481V70.7472H75.6899C76.1124 76.4481 79.5553 82.1536 84.0103 87.1302C88.7381 92.4117 94.4263 96.6713 98.2039 98.9647L98.7585 99.3014V117.52H29.4219V99.3014L29.9765 98.9647C33.754 96.6713 39.4422 92.4117 44.1701 87.1302C48.6251 82.1536 52.0679 76.4481 52.4904 70.7472H43.7295V58.4481L52.0642 52.1974C48.3088 48.7663 45.9306 43.6814 45.9306 38.0064C45.9306 27.6737 53.8146 19.2974 63.5399 19.2974C73.2652 19.2974 81.1492 27.6737 81.1492 38.0064Z" fill="#34364C"/>
</g>
<defs>
<filter id="filter0_d_502_522" x="-3.02383" y="0.408524" width="136.006" height="144" filterUnits="userSpaceOnUse" color-interpolation-filters="sRGB">
<feFlood flood-opacity="0" result="BackgroundImageFix"/>
<feColorMatrix in="SourceAlpha" type="matrix" values="0 0 0 0 0 0 0 0 0 0 0 0 0 0 0 0 0 0 127 0" result="hardAlpha"/>
<feOffset dy="4"/>
<feGaussianBlur stdDeviation="2"/>
<feComposite in2="hardAlpha" operator="out"/>
<feColorMatrix type="matrix" values="0 0 0 0 0 0 0 0 0 0 0 0 0 0 0 0 0 0 0.25 0"/>
<feBlend mode="normal" in2="BackgroundImageFix" result="effect1_dropShadow_502_522"/>
<feBlend mode="normal" in="SourceGraphic" in2="effect1_dropShadow_502_522" result="shape"/>
</filter>
</defs>
</svg>
