<svg width="129" height="137" viewBox="0 0 129 137" fill="none" xmlns="http://www.w3.org/2000/svg">
<g filter="url(#filter0_d_502_537)">
<path d="M42.058 77.8804C41.2096 79.1109 40.1973 80.3924 39.0171 81.7107C34.8524 86.3631 29.7447 90.1908 26.4482 92.1922L25.8936 92.5289C23.6779 93.8741 22.3105 96.3776 22.3105 99.0889V117.307C22.3105 121.48 25.4944 124.863 29.4219 124.863H98.7585C102.686 124.863 105.87 121.48 105.87 117.307V99.0889C105.87 96.3776 104.502 93.8741 102.287 92.5289L101.732 92.1922C98.4357 90.1908 93.328 86.3631 89.1632 81.7107C87.9831 80.3924 86.9708 79.1109 86.1223 77.8804C89.2434 77.0816 91.5624 74.0959 91.5624 70.5347V58.2357C91.5624 55.7807 90.4397 53.4788 88.552 52.063L85.5316 49.7979C87.2743 46.2002 88.2606 42.1176 88.2606 37.7939C88.2606 23.2884 77.1928 11.5294 63.5399 11.5294C49.887 11.5294 38.8192 23.2884 38.8192 37.7939C38.8192 42.3608 39.9191 46.6575 41.8483 50.3982L39.6284 52.063C37.7407 53.4788 36.618 55.7807 36.618 58.2357V70.5347C36.618 74.0959 38.937 77.0816 42.058 77.8804Z" fill="#F4F7FA"/>
<path d="M81.1492 37.7939C81.1492 43.2201 78.975 48.1067 75.5017 51.5241L84.4509 58.2357V70.5347H75.69C76.1124 76.2356 79.5553 81.9411 84.0103 86.9177C88.7381 92.1992 94.4264 96.4588 98.2039 98.7522L98.7585 99.0889V117.307H29.4219V99.0889L29.9765 98.7522C33.7541 96.4588 39.4423 92.1992 44.1701 86.9177C48.6251 81.9411 52.068 76.2356 52.4905 70.5347H43.7295V58.2357L52.0642 51.9849C48.3089 48.5538 45.9306 43.469 45.9306 37.7939C45.9306 27.4612 53.8146 19.0849 63.5399 19.0849C73.2652 19.0849 81.1492 27.4612 81.1492 37.7939Z" fill="#F4F7FA"/>
</g>
<defs>
<filter id="filter0_d_502_537" x="-3.02383" y="0.19606" width="136.006" height="144" filterUnits="userSpaceOnUse" color-interpolation-filters="sRGB">
<feFlood flood-opacity="0" result="BackgroundImageFix"/>
<feColorMatrix in="SourceAlpha" type="matrix" values="0 0 0 0 0 0 0 0 0 0 0 0 0 0 0 0 0 0 127 0" result="hardAlpha"/>
<feOffset dy="4"/>
<feGaussianBlur stdDeviation="2"/>
<feComposite in2="hardAlpha" operator="out"/>
<feColorMatrix type="matrix" values="0 0 0 0 0 0 0 0 0 0 0 0 0 0 0 0 0 0 0.25 0"/>
<feBlend mode="normal" in2="BackgroundImageFix" result="effect1_dropShadow_502_537"/>
<feBlend mode="normal" in="SourceGraphic" in2="effect1_dropShadow_502_537" result="shape"/>
</filter>
</defs>
</svg>
