<svg width="134" height="137" viewBox="0 0 134 137" fill="none" xmlns="http://www.w3.org/2000/svg">
<g filter="url(#filter0_d_502_550)">
<path d="M34.9776 19.085C34.9776 20.9499 35.26 22.7443 35.7818 24.4227L32.2715 26.1721C29.3614 22.9673 25.2772 20.9739 20.7548 20.9739C11.9178 20.9739 4.75403 28.585 4.75403 37.9739C4.75403 46.3431 10.4464 53.2998 17.942 54.7121L26.3728 85.4228C26.5488 86.0638 26.804 86.6773 27.1317 87.2471L31.9908 95.6949L31.961 95.7005C28.5641 96.3389 26.0883 99.4755 26.0883 103.141V117.307C26.0883 121.48 29.2722 124.863 33.1998 124.863L100.895 124.863C102.781 124.863 104.59 124.067 105.924 122.65C107.257 121.233 108.007 119.311 108.007 117.307V103.141C108.007 99.4712 105.525 96.3324 102.124 95.6985L101.981 95.6719L106.827 87.2471C107.154 86.6773 107.409 86.0638 107.585 85.4228L116.016 54.7121C123.512 53.2998 129.204 46.3431 129.204 37.9739C129.204 28.585 122.04 20.9739 113.203 20.9739C108.675 20.9739 104.587 22.9723 101.676 26.1843L98.1717 24.4379C98.6965 22.7552 98.9806 20.9556 98.9806 19.085C98.9806 9.69612 91.8168 2.08496 82.9799 2.08496C74.1429 2.08496 66.9791 9.69612 66.9791 19.085C66.9791 9.69612 59.8153 2.08496 50.9784 2.08496C42.1414 2.08496 34.9776 9.69612 34.9776 19.085Z" fill="#34364C"/>
<path d="M54.1693 27.9027C57.5024 26.5403 59.8677 23.1061 59.8677 19.0849C59.8677 13.8689 55.8878 9.6405 50.9784 9.6405C46.069 9.6405 42.0891 13.8689 42.0891 19.0849C42.0891 23.9051 45.4878 27.8819 49.878 28.4577L45.9138 62.5294L26.8034 44.8948C28.5508 43.1702 29.6441 40.7077 29.6441 37.9739C29.6441 32.7578 25.6642 28.5294 20.7548 28.5294C15.8454 28.5294 11.8655 32.7578 11.8655 37.9739C11.8655 43.1899 15.8454 47.4183 20.7548 47.4183C21.619 47.4183 22.4544 47.2873 23.2444 47.0429L33.1998 83.3072L43.4947 101.205L33.1998 103.14V117.307L100.895 117.307V103.14L90.4681 101.198L100.758 83.3072L110.714 47.0429C111.504 47.2873 112.339 47.4183 113.203 47.4183C118.113 47.4183 122.093 43.1899 122.093 37.9739C122.093 32.7578 118.113 28.5294 113.203 28.5294C108.294 28.5294 104.314 32.7578 104.314 37.9739C104.314 40.7077 105.407 43.1702 107.155 44.8948L88.0445 62.5294L84.0802 28.4577C88.4705 27.8819 91.8692 23.9051 91.8692 19.0849C91.8692 13.8689 87.8893 9.6405 82.9799 9.6405C78.0705 9.6405 74.0906 13.8689 74.0906 19.0849C74.0906 23.1061 76.4559 26.5403 79.789 27.9027L66.9791 58.7516L54.1693 27.9027Z" fill="#34364C"/>
</g>
<defs>
<filter id="filter0_d_502_550" x="-1.02383" y="0.196045" width="136.006" height="144" filterUnits="userSpaceOnUse" color-interpolation-filters="sRGB">
<feFlood flood-opacity="0" result="BackgroundImageFix"/>
<feColorMatrix in="SourceAlpha" type="matrix" values="0 0 0 0 0 0 0 0 0 0 0 0 0 0 0 0 0 0 127 0" result="hardAlpha"/>
<feOffset dy="4"/>
<feGaussianBlur stdDeviation="2"/>
<feComposite in2="hardAlpha" operator="out"/>
<feColorMatrix type="matrix" values="0 0 0 0 0 0 0 0 0 0 0 0 0 0 0 0 0 0 0.25 0"/>
<feBlend mode="normal" in2="BackgroundImageFix" result="effect1_dropShadow_502_550"/>
<feBlend mode="normal" in="SourceGraphic" in2="effect1_dropShadow_502_550" result="shape"/>
</filter>
</defs>
</svg>
