<svg width="129" height="137" viewBox="0 0 129 137" fill="none" xmlns="http://www.w3.org/2000/svg">
<g filter="url(#filter0_d_502_540)">
<path d="M47.2005 9.6405C48.4958 9.6405 49.7102 10.0084 50.7562 10.6513C51.8022 10.0084 53.0167 9.6405 54.312 9.6405H73.8684C75.1637 9.6405 76.3782 10.0084 77.4242 10.6513C78.4701 10.0084 79.6846 9.6405 80.9799 9.6405H98.7585C102.686 9.6405 105.87 13.0232 105.87 17.1961V34.1961C105.87 36.5742 104.816 38.8136 103.025 40.2405L92.0521 48.9844L95.1592 78.695C95.9818 86.5609 99.4278 90.5517 104.448 97.6627C105.371 98.9706 105.87 100.561 105.87 102.196V117.307C105.87 121.48 102.686 124.863 98.7585 124.863H29.4219C25.4944 124.863 22.3105 121.48 22.3105 117.307V102.196C22.3105 100.561 22.8096 98.9706 23.7328 97.6627C28.7526 90.5517 32.1985 86.5609 33.0211 78.695L36.1283 48.9844L25.1551 40.2405C23.3644 38.8136 22.3105 36.5742 22.3105 34.1961V17.1961C22.3105 13.0232 25.4944 9.6405 29.4219 9.6405H47.2005Z" fill="#F4F7FA"/>
<path d="M29.4219 17.196H47.2005V28.5294H54.312V17.196H73.8684V28.5294H80.9799V17.196H98.7584V34.196L84.5356 45.5294L88.0913 79.5294H40.0891L43.6448 45.5294L29.4219 34.196V17.196Z" fill="#34364C"/>
<path d="M40.0891 87.0849H88.0913L98.7585 102.196V117.307H29.4219V102.196L40.0891 87.0849Z" fill="#34364C"/>
</g>
<defs>
<filter id="filter0_d_502_540" x="-3.02383" y="0.196045" width="136.006" height="144" filterUnits="userSpaceOnUse" color-interpolation-filters="sRGB">
<feFlood flood-opacity="0" result="BackgroundImageFix"/>
<feColorMatrix in="SourceAlpha" type="matrix" values="0 0 0 0 0 0 0 0 0 0 0 0 0 0 0 0 0 0 127 0" result="hardAlpha"/>
<feOffset dy="4"/>
<feGaussianBlur stdDeviation="2"/>
<feComposite in2="hardAlpha" operator="out"/>
<feColorMatrix type="matrix" values="0 0 0 0 0 0 0 0 0 0 0 0 0 0 0 0 0 0 0.25 0"/>
<feBlend mode="normal" in2="BackgroundImageFix" result="effect1_dropShadow_502_540"/>
<feBlend mode="normal" in="SourceGraphic" in2="effect1_dropShadow_502_540" result="shape"/>
</filter>
</defs>
</svg>
